<?xml version="1.0" encoding="utf-8"?>
<!-- Generator: Adobe Illustrator 19.2.1, SVG Export Plug-In . SVG Version: 6.00 Build 0)  -->
<svg version="1.1" id="Layer_1" xmlns="http://www.w3.org/2000/svg" xmlns:xlink="http://www.w3.org/1999/xlink" x="0px" y="0px"
	 viewBox="0 0 300.4 308.1" style="enable-background:new 0 0 300.4 308.1;" xml:space="preserve">
<style type="text/css">
	.st0{fill:none;stroke:#FF1177;stroke-width:2.5681;stroke-linecap:round;stroke-linejoin:round;stroke-miterlimit:10;}
	.st1{fill:none;stroke:#FF1177;stroke-width:7;stroke-linecap:round;stroke-linejoin:round;stroke-miterlimit:10;}
	.st2{fill:none;stroke:#FF1177;stroke-width:2.3654;stroke-linecap:round;stroke-linejoin:round;stroke-miterlimit:10;}
	.st3{fill:none;stroke:#FF1177;stroke-width:2.0776;stroke-linecap:round;stroke-linejoin:round;stroke-miterlimit:10;}
	.st4{fill:none;stroke:#FF1177;stroke-width:3.0087;stroke-linecap:round;stroke-linejoin:round;stroke-miterlimit:10;}
	.st5{fill:none;stroke:#FF1177;stroke-width:11;stroke-linecap:round;stroke-linejoin:round;stroke-miterlimit:10;}
	.st6{fill:#CD4699;}
	.st7{fill:none;stroke:#FF1177;stroke-width:10;stroke-miterlimit:10;}
	.st8{fill:none;}
	path{fill:#FF1177;}
</style>
<path d="M300.1,178.7c-5.9-10.9-17.7-22.1-35.2-33.2c-10.2-6.5-19.2-11-22.8-12.7V117c0-0.9-0.4-1.7-1.2-2.3
	c-20-14.2-43-21.2-58.8-24.5c-17.1-3.6-29.3-3.8-29.9-3.8c-16.6,0-32.7,4.1-45.3,11.6c-2.8,1.7-5.5,3.5-7.9,5.5
	c-8,1.5-13.4-0.4-15.9-2.7c-1.5-1.4-2.1-3-1.8-4.8c0.7-5.1,4.6-11.4,9.1-18.6c6.3-10.1,14.2-22.7,16.1-37.6
	c2.2-16.6-2.9-26.4-7.6-31.7C94.6,3,88.6,0,83,0c-8.4,0-16.6,2.4-24.4,7.3c-3-1.2-6.1-1.8-9.4-1.8c-10.1,0-18.9,6.1-22.8,14.8
	C11.5,22,0,35.9,0,52.6c0,18,13.3,32.6,29.7,32.6c5,0,10-1.4,14.4-4.1c0.7-0.4,1.1-1.1,1.3-1.8c0.2-0.8,0-1.5-0.5-2.2
	c-3.5-4.8-5.3-10.7-5.3-16.9c0-2.2,0.2-4.4,0.7-6.5c2.8,1.1,5.9,1.7,8.9,1.7c13.8,0,25-11.2,25-25c0-2.1-0.3-4.1-0.8-6.1
	c2.8-1.2,5.2-1.5,6.8-0.7c1.3,0.6,2.3,2.2,2.7,4.6c1.9,10-2.1,20.1-13.7,34.8c-1.2,1.5-2.9,3.3-5,5.4c-10.5,10.9-28,29-20.7,58.9
	c1.6,6.6,6.7,12.9,13.7,16.9c8.2,4.7,18.1,6,28.1,3.7c2.3,7.6,10,29.3,24.4,39.8c6.4,4.6,15.9,6.1,25.6,6.1c6.3,0,12.6-0.6,18.1-1.4
	c0.1,0.1,8.1,5.4,9.4,16.1c1.3,10.4,0.3,26.7,0,30.5c-1.4,1.9-4.7,7.4-4,13.1c0.4,3.3,2.1,6.1,5,8.3c2.8,2.1,3.8,10.7,2.6,23.1
	c-0.7,8.1-2.1,15.8-2.7,18.8h-32.3c-1.5,0-2.8,1.2-2.8,2.8s1.2,2.8,2.8,2.8h73.7c1.5,0,2.8-1.2,2.8-2.8s-1.2-2.8-2.8-2.8h-23
	c3.8-11.8,1.4-30.3-0.9-46.8c-0.6-4.3-1.1-8.3-1.5-12c-1.8-16.1,1.2-57.4,1.9-66.5c2.1-0.7,4.1-1.5,6.1-2.4
	c38.9-6.1,66.3-3.7,82.4-0.6c17.5,3.3,25.9,8.2,26,8.3c0.4,0.3,0.9,0.4,1.4,0.4c0.7,0,1.4-0.3,1.9-0.8
	C300.5,181.2,300.7,179.8,300.1,178.7z M271.7,168.8c-14.6-2.8-38-5.1-70.4-1.4c12.8-8.9,20.4-20.7,20.4-32.8c0-1.5-1.2-2.8-2.8-2.8
	c-1.5,0-2.8,1.2-2.8,2.8c0,13.6-11.6,26.7-30.1,34.9c-0.1,0-0.2,0.1-0.3,0.1c-2.4,1-4.9,2-7.5,2.9c-0.2,0.1-0.4,0.1-0.5,0.2
	c0,0,0,0,0,0c-0.1,0-0.1,0.1-0.2,0.1c0,0-0.1,0-0.1,0.1c0,0-0.1,0.1-0.1,0.1c0,0,0,0-0.1,0.1c0,0-0.1,0.1-0.1,0.1c0,0,0,0-0.1,0.1
	c0,0-0.1,0.1-0.1,0.1c0,0,0,0,0,0.1c0,0.1-0.1,0.1-0.1,0.2c0,0,0,0,0,0c0,0.1-0.1,0.1-0.1,0.2c0,0,0,0,0,0c0,0.1-0.1,0.1-0.1,0.2
	c0,0,0,0,0,0c0,0.1-0.1,0.1-0.1,0.2c0,0,0,0.1,0,0.1c0,0,0,0.1,0,0.1c0,0.1,0,0.2,0,0.3c-0.2,2.2-4,50.8-2,69.4
	c0.4,3.8,1,7.8,1.5,12.1c2.2,16.5,4.7,35.1,0.7,45.5c-0.1,0.2-0.1,0.4-0.2,0.6h-6.9c0.7-3.7,1.9-10.7,2.6-18.3
	c0.5-5.7,2.1-22.9-4.8-28.1c-1.7-1.3-2.6-2.8-2.9-4.6c-0.5-3.8,2.3-8.3,3.4-9.7c0.3-0.4,0.6-1,0.6-1.5c0.1-0.8,1.5-20.1,0-32.4
	c-1-7.9-4.8-13.4-7.9-16.6c5.7-1.1,9.5-2.1,10.1-2.2c0.8-0.2,1.4-0.8,1.8-1.5c0.3-0.7,0.4-1.6,0-2.3c-0.2-0.3-3.8-8.6-10.2-18.1
	c-8.7-12.9-17.8-21.4-27-25.1c-8.1-3.3-13.2-3-26.8-0.1c-1.5,0.3-2.5,1.8-2.2,3.3c0.3,1.5,1.8,2.5,3.3,2.2
	c13.3-2.8,17.1-2.8,23.6-0.1c16.1,6.6,28.7,29.1,32.8,37.3c-4,0.9-11.3,2.4-19.3,3.3c-15.6,1.6-27.2,0.1-33.5-4.4
	C97.3,172,90,144.3,89.9,144c-0.2-0.7-0.7-1.4-1.3-1.7c-0.7-0.4-1.4-0.5-2.2-0.3c-9.5,2.8-18.8,1.9-26.4-2.5
	c-5.7-3.3-9.8-8.3-11.1-13.5c-6.6-26.9,9-43.1,19.3-53.8c2.1-2.2,4-4.1,5.3-5.8C86,50.6,90.5,38.8,88.3,27.2c-1-5.3-3.7-7.6-5.8-8.6
	c-4.6-2.2-10.1-0.2-13.8,1.8c-1,0.5-1.5,1.6-1.4,2.7c0,0.3,0.1,0.5,0.2,0.8c0.8,2.1,1.1,4.3,1.1,6.6c0,10.7-8.7,19.4-19.4,19.4
	c-3.3,0-6.5-0.8-9.3-2.4c-0.9-0.5-1.9-0.5-2.8,0c-0.6,0.4-1.1,1-1.3,1.7c-1.2,3.6-1.8,7.3-1.8,11.1c0,6.3,1.6,12.3,4.6,17.5
	c-2.8,1.3-5.9,1.9-8.9,1.9c-13.3,0-24.1-12.1-24.1-27c0-12.9,8.1-23.8,19-26.4c-0.2,1.4-0.4,2.8-0.4,4.2c0,2.9,0.5,5.8,1.5,8.5
	c0.5,1.4,2.1,2.2,3.6,1.7c1.4-0.5,2.2-2.1,1.7-3.6c-0.8-2.1-1.2-4.3-1.2-6.6c0-10.7,8.7-19.4,19.4-19.4c2.9,0,5.8,0.6,8.4,1.9
	c0.9,0.4,1.9,0.4,2.7-0.2C67.6,8,75.2,5.6,83,5.6c3.1,0,7.9,1.6,11.9,6.3c3.9,4.4,8.1,12.7,6.2,27.3c-1.8,13.7-9,25.2-15.3,35.4
	c-4.9,7.8-9.1,14.5-9.9,20.8c-0.5,3.6,0.8,7,3.6,9.6c3.2,2.9,7.9,4.5,13.4,4.7c-4.7,5.4-7.9,11.5-9.3,17.9c-0.3,1.5,0.6,3,2.1,3.3
	c1.5,0.3,3-0.6,3.3-2.1c4.4-20.9,31.6-36.7,63.2-36.7c0.5,0,47.7,1.1,84.3,26.5v26.5c0,1.5,1.2,2.8,2.8,2.8c1.5,0,2.8-1.2,2.8-2.8
	V139c9.6,4.8,34.5,18.2,47.9,34.7C285.6,172.1,279.5,170.3,271.7,168.8z"/>
</svg>
